<svg width="148" height="20" viewBox="0 0 148 20" fill="none" xmlns="http://www.w3.org/2000/svg"
    class="css-tbhrnm">
    <path fill-rule="evenodd" clip-rule="evenodd"
        d="M0.570801 4.75124V0.703125H8.4248V0.703143L8.42481 0.703136L16.6839 19.3844H12.2558L5.78638 4.75124H4.62162V19.3845H0.570847V4.75124H0.570801ZM16.6839 19.3844L24.943 0.703136L24.943 0.70317V0.703125H32.797V0.703167H32.7977V19.3844H28.7469L28.7469 4.75124H27.5815L21.1127 19.3844H16.6839ZM79.1265 19.3844H83.1773V0.703167H79.1265V19.3844ZM44.1526 9.24911L46.1409 4.75124H48.2738L50.2624 9.24911H44.1526ZM39.6721 19.3844L42.363 13.2972H52.052L54.7432 19.3844H59.1713L50.913 0.703136L50.9128 0.703211V0.703125H43.5022V0.703542L35.2433 19.3844H39.6721ZM65.5633 4.75124V19.3844H61.5125V4.75124V0.703136L70.8668 0.703125V0.703426L70.8674 0.703136L79.1257 19.3844H74.6977L68.2282 4.75124H65.5633ZM85.4269 4.75124H94.5037V19.3844H98.5544V4.75124H107.631V0.703125H85.4269V4.75124ZM109.882 0.703136H113.932V15.3363H126.761V19.3844H109.882L109.882 19.3844V0.703136ZM133.061 11.798V15.3363H147.39V19.3844H129.011L129.01 19.3844V11.798V7.74987V4.75124V0.703136L147.389 0.703125V4.75124H133.061V7.74987H146.132V11.798H133.061Z"
        fill="white"></path>
</svg>